<?xml version="1.0" standalone="no"?>
<!DOCTYPE svg PUBLIC "-//W3C//DTD SVG 20010904//EN"
 "http://www.w3.org/TR/2001/REC-SVG-20010904/DTD/svg10.dtd">
<svg version="1.0" xmlns="http://www.w3.org/2000/svg"
 width="100.000000pt" height="100.000000pt" viewBox="0 0 100.000000 100.000000"
 preserveAspectRatio="xMidYMid meet">
<metadata>
Created by potrace 1.16, written by Peter Selinger 2001-2019
</metadata>
<g transform="translate(0.000000,100.000000) scale(0.100000,-0.100000)"
fill="#000000" stroke="none">
<path d="M485 860 c-22 -3 -49 -10 -60 -17 l-20 -12 20 -15 c11 -8 15 -16 8
-16 -6 0 -15 5 -18 10 -10 16 -30 12 -68 -14 -19 -13 -38 -22 -41 -19 -13 13
-17 -50 -6 -101 13 -61 30 -66 30 -9 0 39 37 122 54 124 6 0 49 1 95 0 113 0
130 -17 146 -148 7 -52 24 -69 41 -41 5 8 2 9 -9 5 -11 -4 -17 -1 -17 8 0 8 4
15 9 15 11 0 12 119 1 140 -5 8 -27 26 -49 40 -23 14 -41 32 -41 42 0 10 -5
18 -11 18 -5 0 -7 -4 -4 -10 3 -5 2 -10 -4 -10 -5 0 -11 3 -13 8 -1 4 -21 5
-43 2z"/>
<path d="M546 443 c-7 -7 -12 -8 -73 -11 -18 -1 -41 -10 -52 -21 -10 -10 -24
-20 -31 -23 -8 -2 -15 -27 -17 -64 -3 -45 1 -68 17 -99 21 -42 24 -55 12 -55
-4 0 -18 23 -30 51 -13 28 -26 48 -29 46 -7 -7 19 -91 32 -99 15 -11 -14 -28
-49 -28 -23 0 -27 3 -21 17 3 10 9 36 11 58 3 22 12 57 20 78 8 22 10 37 4 37
-11 0 -45 -36 -45 -48 -1 -4 -7 -18 -14 -31 -8 -14 -13 -49 -12 -79 1 -54 1
-55 -18 -38 -11 10 -24 15 -29 12 -6 -3 -8 3 -5 14 3 11 9 23 14 26 18 11 9
25 -10 15 -23 -13 -38 -54 -37 -99 1 -41 -20 -42 -29 -2 -9 40 -28 27 -20 -13
5 -28 4 -30 -6 -12 -7 11 -16 23 -21 26 -5 3 -8 10 -7 15 4 25 -2 43 -15 38
-16 -6 -61 -87 -70 -127 l-6 -27 120 0 120 0 0 25 c0 14 5 25 11 25 7 0 9 -10
7 -25 -3 -14 -1 -25 3 -25 5 0 10 5 10 10 1 6 3 15 4 20 1 6 3 18 4 28 0 11
12 24 26 30 21 10 28 8 45 -10 l20 -22 -6 34 -7 35 37 -37 c20 -20 36 -34 36
-31 0 3 9 -2 20 -12 11 -10 20 -24 20 -30 0 -7 11 -12 25 -11 29 1 33 12 8 19
-14 4 -12 5 5 6 13 1 22 -5 22 -14 0 -8 5 -15 10 -15 6 0 10 11 10 25 0 15 6
25 15 25 8 0 17 -11 21 -25 10 -41 35 -32 30 11 -6 43 9 87 27 81 6 -2 11 -11
9 -18 -2 -8 7 -4 19 8 21 20 21 24 7 40 -8 10 -13 24 -11 31 3 7 -1 10 -10 6
-8 -3 -18 -1 -22 5 -13 22 -35 10 -55 -28 -11 -22 -32 -48 -47 -59 -28 -20
-29 -20 -52 -1 -13 10 -27 16 -33 13 -5 -3 -18 2 -29 12 -20 18 -26 40 -8 28
9 -5 10 1 5 21 -6 23 -4 26 9 21 9 -3 13 -2 10 4 -9 15 2 12 31 -6 27 -18 52
-11 94 28 27 26 26 42 -2 27 -22 -11 -22 -10 3 17 14 16 27 40 28 54 6 72 6
75 -17 85 -12 5 -20 15 -18 22 6 14 -8 26 -18 16z"/>
<path d="M940 139 c0 -15 -5 -19 -15 -15 -8 3 -15 1 -15 -5 0 -6 -7 -17 -15
-25 -13 -13 -14 -11 -8 17 4 23 3 30 -5 25 -7 -4 -12 -16 -12 -27 0 -30 -20
-12 -22 19 0 17 -4 11 -8 -18 -6 -41 -7 -42 -8 -11 -3 49 -10 34 -16 -28 -3
-30 -11 -58 -18 -62 -7 -5 34 -9 95 -9 69 0 107 4 107 11 0 5 -4 8 -9 5 -11
-7 -20 34 -30 137 -2 17 -21 5 -21 -14z"/>
</g>
</svg>
